<svg xmlns="http://www.w3.org/2000/svg" viewBox="0 0 100 100" width="100" height="100">
  <!-- Background circle -->
  <circle cx="50" cy="50" r="45" fill="#4F46E5" stroke="#6366F1" stroke-width="2"/>
  
  <!-- Design tools -->
  <!-- Pen tool -->
  <path d="M25 30 L35 20 L40 25 L30 35 Z" fill="#FFFFFF" opacity="0.9"/>
  <path d="M30 35 L28 42 L35 40 Z" fill="#FFFFFF" opacity="0.7"/>
  
  <!-- Ruler -->
  <rect x="20" y="65" width="25" height="4" fill="#FFFFFF" opacity="0.9" rx="2"/>
  <rect x="22" y="63" width="2" height="8" fill="#FFFFFF" opacity="0.6"/>
  <rect x="26" y="63" width="2" height="8" fill="#FFFFFF" opacity="0.6"/>
  <rect x="30" y="63" width="2" height="8" fill="#FFFFFF" opacity="0.6"/>
  <rect x="34" y="63" width="2" height="8" fill="#FFFFFF" opacity="0.6"/>
  <rect x="38" y="63" width="2" height="8" fill="#FFFFFF" opacity="0.6"/>
  <rect x="42" y="63" width="2" height="8" fill="#FFFFFF" opacity="0.6"/>
  
  <!-- Mobile wireframe -->
  <rect x="55" y="20" width="20" height="30" fill="none" stroke="#FFFFFF" stroke-width="2" rx="3"/>
  <rect x="58" y="23" width="14" height="2" fill="#FFFFFF" opacity="0.7" rx="1"/>
  <rect x="58" y="27" width="10" height="1.5" fill="#FFFFFF" opacity="0.5" rx="0.5"/>
  <rect x="58" y="30" width="8" height="1.5" fill="#FFFFFF" opacity="0.5" rx="0.5"/>
  <rect x="58" y="33" width="14" height="8" fill="#FFFFFF" opacity="0.3" rx="1"/>
  <rect x="58" y="43" width="6" height="1.5" fill="#FFFFFF" opacity="0.5" rx="0.5"/>
  <rect x="66" y="43" width="6" height="1.5" fill="#FFFFFF" opacity="0.5" rx="0.5"/>
  <circle cx="65" cy="47" r="1.5" fill="#FFFFFF" opacity="0.6"/>
  
  <!-- Desktop wireframe -->
  <rect x="20" y="45" width="28" height="20" fill="none" stroke="#FFFFFF" stroke-width="2" rx="2"/>
  <rect x="22" y="47" width="24" height="2" fill="#FFFFFF" opacity="0.7" rx="1"/>
  <rect x="22" y="51" width="11" height="1.5" fill="#FFFFFF" opacity="0.5" rx="0.5"/>
  <rect x="22" y="54" width="8" height="1.5" fill="#FFFFFF" opacity="0.5" rx="0.5"/>
  <rect x="22" y="57" width="24" height="6" fill="#FFFFFF" opacity="0.3" rx="1"/>
  
  <!-- Color palette -->
  <circle cx="65" cy="65" r="3" fill="#FF6B6B"/>
  <circle cx="72" cy="65" r="3" fill="#4ECDC4"/>
  <circle cx="79" cy="65" r="3" fill="#45B7D1"/>
  <circle cx="65" cy="73" r="3" fill="#96CEB4"/>
  <circle cx="72" cy="73" r="3" fill="#FFEAA7"/>
  <circle cx="79" cy="73" r="3" fill="#DDA0DD"/>
  
  <!-- Connecting lines for workflow -->
  <path d="M45 35 Q50 40 55 35" fill="none" stroke="#FFFFFF" stroke-width="1.5" opacity="0.4" stroke-dasharray="2,2"/>
  <path d="M48 50 Q52 55 56 60" fill="none" stroke="#FFFFFF" stroke-width="1.5" opacity="0.4" stroke-dasharray="2,2"/>
</svg>